<svg xmlns="http://www.w3.org/2000/svg" width="15" height="15" fill="none" viewBox="0 0 15 15"><path fill="#3A404E" d="M1.71125 0.293605C1.31978 -0.0978684 0.685076 -0.0978684 0.293604 0.293605C-0.097868 0.685079 -0.097868 1.31978 0.293604 1.71126L6.08235 7.50003L0.293664 13.2887C-0.0978078 13.6802 -0.0978082 14.3149 0.293664 14.7064C0.685136 15.0979 1.31984 15.0979 1.71131 14.7064L7.5 8.91768L13.2887 14.7064C13.6802 15.0979 14.3149 15.0979 14.7063 14.7064C15.0978 14.3149 15.0978 13.6802 14.7063 13.2887L8.91765 7.50003L14.7064 1.71126C15.0979 1.31978 15.0979 0.685079 14.7064 0.293605C14.3149 -0.0978684 13.6802 -0.0978684 13.2888 0.293605L7.5 6.08238L1.71125 0.293605Z"/></svg>