<svg id="svg" version="1.1" width="878" height="546" viewBox="0 0 878 546" xmlns="http://www.w3.org/2000/svg"><path d="M575.500 62.987 C 537.550 63.288,506.440 63.639,506.367 63.767 C 504.753 66.584,505.451 68.301,508.832 69.831 C 529.560 79.213,554.017 104.329,566.964 129.528 C 569.708 134.869,572.402 139.780,572.952 140.442 C 573.501 141.104,574.685 144.538,575.584 148.073 C 576.482 151.608,577.830 155.625,578.579 157.000 C 579.329 158.375,580.417 161.394,580.998 163.708 C 581.579 166.022,582.535 168.213,583.123 168.576 C 585.143 169.825,585.663 168.979,600.996 139.500 C 603.857 134.000,606.775 128.825,607.482 128.000 C 608.189 127.175,609.749 124.700,610.950 122.500 C 613.166 118.439,615.885 113.908,619.500 108.252 C 620.600 106.531,622.400 103.654,623.500 101.860 C 626.773 96.520,627.303 95.757,632.000 89.622 C 634.475 86.390,637.147 82.790,637.939 81.622 C 638.730 80.455,641.572 76.914,644.255 73.752 C 647.973 69.371,649.058 67.350,648.817 65.252 C 648.590 63.285,647.929 62.491,646.500 62.470 C 645.400 62.454,613.450 62.686,575.500 62.987 M736.383 63.462 C 733.758 65.381,735.225 68.303,740.160 70.982 C 753.842 78.408,773.020 97.985,794.511 126.461 C 800.252 134.069,808.501 146.448,813.528 155.000 C 815.630 158.575,818.041 162.625,818.887 164.000 C 819.732 165.375,822.296 170.100,824.584 174.500 C 826.873 178.900,829.868 184.592,831.239 187.148 C 832.611 189.705,834.251 193.281,834.884 195.096 L 836.034 198.396 837.677 196.050 C 839.162 193.931,839.314 187.523,839.256 129.733 C 839.197 71.966,839.032 65.604,837.559 64.131 C 836.098 62.670,830.812 62.489,786.955 62.396 C 750.992 62.319,737.558 62.603,736.383 63.462 M64.835 64.728 C 61.040 65.281,60.702 67.334,63.530 72.652 C 64.889 75.207,66.000 77.845,66.000 78.514 C 66.000 79.183,66.838 80.803,67.862 82.115 C 68.887 83.427,70.060 85.625,70.470 87.000 C 70.879 88.375,73.242 93.775,75.721 99.000 C 82.933 114.202,87.980 124.952,91.684 133.000 C 95.057 140.328,99.090 148.990,101.461 154.000 C 102.112 155.375,103.136 157.400,103.736 158.500 C 104.335 159.600,106.027 163.200,107.495 166.500 C 108.963 169.800,111.747 175.875,113.682 180.000 C 115.617 184.125,118.223 189.750,119.473 192.500 C 123.932 202.308,129.174 213.578,131.566 218.500 C 132.902 221.250,134.662 225.075,135.478 227.000 C 136.293 228.925,137.372 231.175,137.876 232.000 C 138.379 232.825,140.245 236.650,142.023 240.500 C 143.800 244.350,146.504 250.200,148.033 253.500 C 149.561 256.800,152.477 263.100,154.513 267.500 C 156.550 271.900,160.475 280.225,163.237 286.000 C 165.999 291.775,169.501 299.200,171.019 302.500 C 175.673 312.618,181.048 324.201,184.012 330.500 C 189.547 342.262,196.269 356.615,199.702 364.000 C 205.036 375.475,208.442 382.781,212.288 391.000 C 214.219 395.125,217.469 402.100,219.511 406.500 C 224.572 417.408,230.492 430.092,234.443 438.500 C 236.252 442.350,238.287 446.936,238.964 448.692 C 239.845 450.976,241.040 452.070,243.169 452.537 C 244.805 452.896,246.273 453.035,246.431 452.845 C 246.590 452.655,248.907 448.225,251.580 443.000 C 261.858 422.913,263.284 420.182,269.062 409.500 C 272.336 403.450,276.160 396.250,277.562 393.500 C 278.964 390.750,282.744 383.550,285.963 377.500 C 289.181 371.450,294.370 361.440,297.493 355.256 C 300.616 349.072,303.583 343.758,304.086 343.447 C 306.309 342.073,304.492 336.205,297.554 322.360 C 293.459 314.187,289.385 305.925,288.500 304.000 C 287.616 302.075,286.030 298.948,284.975 297.050 C 283.920 295.153,282.600 292.453,282.043 291.050 C 281.485 289.648,280.603 287.825,280.081 287.000 C 279.112 285.465,245.483 217.324,242.574 211.000 C 241.689 209.075,240.317 206.375,239.526 205.000 C 238.734 203.625,231.289 188.550,222.981 171.500 C 207.829 140.403,207.232 139.194,205.226 135.500 C 200.833 127.410,173.000 70.123,173.000 69.171 C 173.000 68.511,171.537 67.076,169.750 65.982 C 166.611 64.062,164.807 64.000,117.000 64.167 C 89.775 64.262,66.301 64.515,64.835 64.728 M282.323 64.696 C 278.717 65.398,277.512 67.606,279.269 70.288 C 280.098 71.553,282.891 77.292,285.476 83.043 C 288.061 88.795,292.660 98.675,295.695 105.000 C 298.730 111.325,302.563 119.425,304.212 123.000 C 305.861 126.575,307.613 130.287,308.105 131.250 C 308.597 132.212,309.403 133.787,309.895 134.750 C 310.908 136.730,315.451 146.555,319.491 155.500 C 320.981 158.800,323.786 164.875,325.724 169.000 C 333.098 184.698,335.885 190.689,338.516 196.500 C 340.010 199.800,343.472 207.225,346.210 213.000 C 351.568 224.301,355.631 232.980,360.020 242.500 C 361.542 245.800,365.256 253.675,368.275 260.000 C 378.284 280.971,380.803 286.476,381.542 289.000 C 381.945 290.375,383.113 292.573,384.138 293.885 C 385.162 295.197,386.000 296.738,386.000 297.310 C 386.000 298.238,391.464 310.292,394.244 315.500 C 397.195 321.026,404.000 335.499,404.000 336.249 C 404.000 336.579,406.747 342.621,410.106 349.675 C 413.464 356.729,417.331 364.975,418.700 368.000 C 424.091 379.914,428.178 388.570,429.087 390.000 C 429.611 390.825,430.729 393.075,431.570 395.000 C 432.412 396.925,434.470 401.425,436.145 405.000 C 437.820 408.575,440.026 413.300,441.047 415.500 C 442.069 417.700,445.617 425.236,448.933 432.247 C 452.248 439.258,455.238 446.102,455.578 447.456 C 456.316 450.395,457.587 451.506,461.200 452.369 C 463.796 452.988,464.100 452.602,469.161 442.256 C 472.054 436.340,476.412 427.900,478.844 423.500 C 482.668 416.582,491.187 400.402,501.220 381.000 C 502.784 377.975,506.737 370.550,510.004 364.500 C 513.271 358.450,516.677 351.925,517.572 350.000 C 518.467 348.075,519.768 345.825,520.462 345.000 C 522.846 342.170,523.076 337.367,520.959 334.674 C 519.881 333.305,519.000 331.866,519.000 331.477 C 519.000 330.804,490.127 271.683,487.755 267.500 C 487.131 266.400,485.790 263.700,484.775 261.500 C 483.759 259.300,482.489 256.825,481.952 256.000 C 481.414 255.175,480.049 252.475,478.917 250.000 C 476.760 245.283,443.635 177.965,441.767 174.500 C 441.173 173.400,440.319 171.825,439.869 171.000 C 439.419 170.175,438.389 167.925,437.580 166.000 C 436.771 164.075,435.433 161.375,434.606 160.000 C 433.779 158.625,426.303 143.550,417.993 126.500 C 409.682 109.450,402.364 94.600,401.730 93.500 C 400.649 91.625,394.385 78.891,390.640 70.956 C 387.253 63.780,388.956 63.984,333.846 64.136 C 306.706 64.211,283.520 64.463,282.323 64.696 M759.449 184.468 C 758.652 186.375,758.000 188.345,758.000 188.845 C 758.000 189.346,757.292 190.343,756.427 191.061 C 755.562 191.779,753.968 194.102,752.885 196.225 C 751.803 198.347,750.241 200.852,749.416 201.791 C 748.590 202.731,745.183 206.875,741.844 211.000 C 732.063 223.083,717.115 237.162,706.500 244.288 C 704.300 245.765,701.199 248.022,699.609 249.305 L 696.719 251.636 700.109 254.877 C 701.974 256.659,705.075 258.999,707.000 260.076 C 708.925 261.154,712.525 263.600,715.000 265.513 C 717.475 267.425,721.075 270.068,723.000 271.385 C 726.317 273.655,745.250 292.704,749.471 298.018 C 753.233 302.754,758.158 310.442,759.524 313.712 C 761.063 317.394,762.117 317.769,764.128 315.346 C 765.260 313.982,765.500 302.258,765.500 248.310 C 765.500 191.280,765.308 182.806,764.000 181.979 C 761.597 180.460,760.983 180.796,759.449 184.468 " stroke="none" fill="black" fill-rule="evenodd"/></svg>